<?xml version="1.0" encoding="utf-8"?>
<!-- Generator: Adobe Illustrator 24.1.2, SVG Export Plug-In . SVG Version: 6.00 Build 0)  -->
<svg version="1.1" id="Layer_1" xmlns="http://www.w3.org/2000/svg" xmlns:xlink="http://www.w3.org/1999/xlink" x="0px" y="0px"
	 viewBox="0 0 2700 600" style="enable-background:new 0 0 2700 600;" xml:space="preserve">
<style type="text/css">
	.st0{fill:#1F2933;}
	.st1{fill:#F3F5F7;}
	.st2{display:none;}
	.st3{display:inline;}
	.st4{fill:#FFFFFF;}
</style>
<rect y="-0.18" class="st0" width="2700" height="600"/>
<rect x="20" y="20" class="st1" width="2660" height="560"/>
<rect y="0" class="st0" width="600" height="600"/>
<g class="st2">
	<desc  id="desc">Geometric Strantell mark in dark navy, industrial orange, and steel gray on a transparent background.</desc>
	<g shape-rendering="geometricPrecision" class="st3">
		<polygon class="st4" points="487.21,182.87 299.86,65.88 112.79,182.87 112.79,291.56 163.13,319.88 163.13,215.19 299.57,130.23 
			487.5,245.8 		"/>
		<polygon class="st4" points="112.5,355.64 113.07,417.42 299.86,534.12 299.86,469.77 171.71,390.25 		"/>
		<polygon class="st4" points="247.23,232.35 382.52,307.58 382.24,250.09 299.28,200.89 		"/>
		<polygon class="st4" points="382.81,250.66 382.81,307.58 436.87,337.9 436.87,384.81 300.14,470.05 300.14,534.12 487.21,417.13 
			487.21,307.58 		"/>
		<polygon class="st4" points="217.76,288.13 217.76,349.91 299.28,399.11 357.92,364.5 		"/>
	</g>
</g>
<rect x="633.57" y="396.43" class="st0" width="2017.86" height="5.36"/>
<g>
	<path class="st0" d="M696.5,281.92c0,10.83,2.01,17.62,6.05,20.39c4.03,2.77,9.64,4.16,16.83,4.16l21.12,0.4l29.92-1.58
		c8.21,0,13.56-1.84,16.06-5.54c2.49-3.69,3.74-9.5,3.74-17.42c0-7.13-1.43-12.8-4.29-17.03c-2.86-4.22-8.33-6.34-16.39-6.34h-7.26
		l-73.48-2.77c-13.79,0-23.51-6.27-29.15-18.81c-5.65-12.54-8.47-31.74-8.47-57.62c0-21.91,1.79-38.94,5.39-51.08
		c3.59-12.14,10.12-20.39,19.58-24.75c9.46-4.36,21.85-6.93,37.18-7.72C728.66,95.4,738.96,95,744.24,95l31.24,0.79
		c12.46,0,22.51,1.78,30.14,5.35c7.62,3.56,13.01,10.1,16.17,19.6c3.15,9.5,5.17,18.09,6.05,25.74c0.88,7.66,1.32,18.22,1.32,31.68
		h-43.78c0-9.24-1.51-15.7-4.51-19.4c-3.01-3.69-7.23-5.54-12.65-5.54l-21.56-0.4l-34.1,1.98c-4.55,0-8.4,1.52-11.55,4.55
		c-3.16,3.04-4.73,8.12-4.73,15.25c0,9.77,1.87,16.17,5.61,19.21c3.74,3.04,8.83,4.55,15.29,4.55h4.62l29.92,0.79l29.48,0.4
		c18.92,0,32.67,5.35,41.25,16.04c8.58,10.69,12.87,32.14,12.87,64.35c0,31.15-3.85,52.54-11.55,64.15
		c-7.7,11.62-20.43,17.42-38.17,17.42l-57.2,2.77l-29.92-1.19c-15.84,0-27.5-4.62-34.98-13.86c-7.48-9.24-11.22-27.85-11.22-55.84
		v-15.84h44L696.5,281.92z"/>
	<path class="st0" d="M944.66,361.91v-198H879.1V97.78h175.56v66.13h-65.34v198H944.66z"/>
	<path class="st0" d="M1238.36,97.78c17.6,0,30.17,6.14,37.73,18.41c7.55,12.28,11.33,33.99,11.33,65.14
		c0,11.88-0.37,22.05-1.1,30.49c-0.74,8.45-2.2,15.78-4.4,21.98c-2.2,6.21-4.77,10.83-7.7,13.86c-2.94,3.04-9.1,7.33-18.48,12.87
		c10.26,2.38,17.82,7.07,22.66,14.06c4.84,7,7.26,19.21,7.26,36.63v50.69h-45.32v-25.34c0-12.93-0.63-23.23-1.87-30.89
		c-1.25-7.65-7.08-11.48-17.49-11.48h-74.58v67.72h-44.66V97.78H1238.36z M1219.66,230.04c10.12,0,16.42-2.24,18.92-6.73
		c2.49-4.49,3.74-14.52,3.74-30.1c0-8.71-0.48-15.18-1.43-19.4c-0.96-4.22-2.94-7.13-5.94-8.71c-3.01-1.58-5.47-2.51-7.37-2.77
		c-1.91-0.26-4.18-0.4-6.82-0.4h-3.52h-70.84v68.11h67.54H1219.66z"/>
	<path class="st0" d="M1383.78,361.91h-49.25l81.8-264.13h60.28l80.04,264.13h-49.13l-13.82-47.92h-95.54L1383.78,361.91z
		 M1414.08,259.34h64.01l-31.72-110.9L1414.08,259.34z"/>
	<path class="st0" d="M1735.19,361.91l-88.3-198.4v198.4h-42.02V97.78h71.1l88.4,198v-198h42.02v264.13H1735.19z"/>
	<path class="st0" d="M1918.81,361.91v-198h-65.56V97.78h175.56v66.13h-65.34v198H1918.81z"/>
	<path class="st0" d="M2239.57,97.78v60.19h-119.02v45.14h111.1v52.27h-111.1v46.73h119.02v59.8h-163.68V97.78H2239.57z"/>
	<path class="st0" d="M2440.65,295.78v66.13h-146.08V97.78h44.66v198H2440.65z"/>
	<path class="st0" d="M2633.59,295.78v66.13h-146.08V97.78h44.66v198H2633.59z"/>
</g>
<polygon class="st1" points="487.21,182.87 299.86,65.88 112.79,182.87 112.79,291.56 163.13,319.88 163.13,215.19 299.57,130.23 
	487.5,245.8 "/>
<polygon class="st1" points="112.5,355.64 113.07,417.42 299.86,534.12 299.86,469.77 171.71,390.25 "/>
<polygon class="st1" points="247.23,233 383.13,307.58 382.84,250.58 299.52,201.8 "/>
<polygon class="st1" points="382.81,250.66 382.81,307.58 436.87,337.9 436.87,384.81 300.14,470.05 300.14,534.12 487.21,417.13 
	487.21,307.58 "/>
<polygon class="st1" points="217.76,288.13 217.76,349.91 299.28,399.11 357.92,364.5 "/>
<g>
	<path class="st0" d="M700.89,473.46c0,3.93-0.34,6.6-1.01,8.01s-2.09,2.45-4.24,3.1c2.38,0,4.01,0.9,4.89,2.68
		c0.88,1.79,1.32,4.9,1.32,9.34c0,5.49-0.71,9.31-2.14,11.45c-1.43,2.14-3.77,3.21-7.01,3.21h-23.31v-50.42h23.69
		c2.55,0,4.49,0.98,5.82,2.95C700.23,465.75,700.89,468.97,700.89,473.46z M697.36,473.99c0-3.18-0.39-5.3-1.18-6.39
		c-0.78-1.08-2.1-1.63-3.95-1.63h-19.45v16.48h18.94c1.99,0,3.42-0.58,4.31-1.74C696.92,479.56,697.36,477.31,697.36,473.99z
		 M698.33,497.5c0-2.22-0.1-4.02-0.29-5.41c-0.2-1.38-0.62-2.41-1.26-3.06c-0.64-0.65-1.32-1.07-2.04-1.25
		c-0.71-0.18-1.49-0.26-2.33-0.26h-0.46h-19.15v18.67h19.24c2.16,0,3.74-0.59,4.77-1.78C697.82,503.23,698.33,500.93,698.33,497.5z"
		/>
	<path class="st0" d="M745.29,495.58c0,7.14-0.79,11.58-2.37,13.34c-1.58,1.76-4.57,2.64-8.97,2.64l-5.63,0.23l-8.02-0.23
		c-2.77,0-4.79-1.1-6.07-3.29c-1.27-2.19-1.91-5.78-1.91-10.77v-36.59h3.4v35.73c0,4.01,0.5,6.58,1.51,7.71
		c1.01,1.13,2.73,1.69,5.17,1.69l6.01,0.38l6.51-0.38c2.63,0,4.45-0.58,5.46-1.73s1.51-3.87,1.51-8.14v-1.13v-34.13h3.4V495.58z"/>
	<path class="st0" d="M782.54,467.46c-0.59-0.54-1.65-0.99-3.19-1.34c-1.54-0.35-3.53-0.53-5.96-0.53h-1.18
		c-1.85,0-3.76,0.15-5.73,0.46c-1.97,0.31-3.41,0.82-4.31,1.53c-0.9,0.72-1.47,1.69-1.72,2.91s-0.38,2.71-0.38,4.44
		c0,3.12,0.47,5.24,1.41,6.36c0.94,1.12,2.3,1.68,4.1,1.68h3.07h6.59c1.15,0,2.17,0.03,3.07,0.08c0.9,0.05,2.25,0.25,4.05,0.6
		c1.81,0.35,3.26,1.5,4.37,3.43c1.11,1.94,1.66,5.24,1.66,9.92c0,3.07-0.27,5.62-0.8,7.65c-0.53,2.04-1.44,3.57-2.71,4.6
		c-1.27,1.03-2.81,1.7-4.62,2c-1.81,0.3-3.77,0.45-5.9,0.45h-2.23c-2.1,0-3.67-0.04-4.73-0.12c-1.05-0.08-2.66-0.38-4.83-0.9
		c-2.17-0.52-3.72-1.9-4.64-4.12c-0.92-2.22-1.39-6.1-1.39-11.65h3.4v1.12c0,2.71,0.13,4.72,0.4,6.02c0.27,1.3,0.95,2.26,2.06,2.87
		c1.11,0.61,2.58,1.01,4.43,1.2c1.85,0.19,3.67,0.28,5.46,0.28c2.91,0,5.37-0.23,7.37-0.69c2-0.46,3.37-1.32,4.1-2.59
		c0.73-1.27,1.09-3.35,1.09-6.25c0-3.66-0.47-5.98-1.4-6.97c-0.94-0.99-2.52-1.49-4.76-1.49h-6.42l-7.51-0.38
		c-2.63,0-4.66-0.91-6.08-2.72s-2.14-4.89-2.14-9.22c0-3.43,0.31-6.29,0.92-8.58c0.61-2.29,1.66-3.93,3.12-4.91
		c1.47-0.98,3.19-1.61,5.18-1.89c1.99-0.28,4.21-0.42,6.67-0.42c2.04,0,3.52,0.04,4.43,0.12c0.91,0.08,2.39,0.32,4.45,0.71
		c2.06,0.39,3.63,1.72,4.72,3.98c1.09,2.26,1.64,5.7,1.64,10.32h-3.4c0-2.44-0.15-4.25-0.44-5.44
		C783.53,468.79,783.1,467.95,782.54,467.46z"/>
	<path class="st0" d="M802.66,511.26h-3.4v-50.42h3.4V511.26z"/>
	<path class="st0" d="M814.67,511.26v-50.42h5.65l25.85,45.59v-45.59h3.4v50.42h-5.58l-25.92-45.81v45.81H814.67z"/>
	<path class="st0" d="M888.46,482.68v5.07h-23.48v18.45h24.65v5.07h-28.06v-50.42h27.76v5.14h-24.36v16.71H888.46z"/>
	<path class="st0" d="M926.05,467.46c-0.59-0.54-1.65-0.99-3.19-1.34c-1.54-0.35-3.53-0.53-5.96-0.53h-1.18
		c-1.85,0-3.76,0.15-5.73,0.46c-1.97,0.31-3.41,0.82-4.31,1.53c-0.9,0.72-1.47,1.69-1.72,2.91s-0.38,2.71-0.38,4.44
		c0,3.12,0.47,5.24,1.41,6.36c0.94,1.12,2.3,1.68,4.1,1.68h3.07h6.59c1.15,0,2.17,0.03,3.07,0.08c0.9,0.05,2.25,0.25,4.05,0.6
		c1.81,0.35,3.26,1.5,4.37,3.43c1.11,1.94,1.66,5.24,1.66,9.92c0,3.07-0.27,5.62-0.8,7.65c-0.53,2.04-1.44,3.57-2.71,4.6
		c-1.27,1.03-2.81,1.7-4.62,2c-1.81,0.3-3.77,0.45-5.9,0.45h-2.23c-2.1,0-3.67-0.04-4.73-0.12c-1.05-0.08-2.66-0.38-4.83-0.9
		c-2.17-0.52-3.72-1.9-4.64-4.12c-0.92-2.22-1.39-6.1-1.39-11.65h3.4v1.12c0,2.71,0.13,4.72,0.4,6.02c0.27,1.3,0.95,2.26,2.06,2.87
		c1.11,0.61,2.58,1.01,4.43,1.2c1.85,0.19,3.67,0.28,5.46,0.28c2.91,0,5.37-0.23,7.37-0.69c2-0.46,3.37-1.32,4.1-2.59
		c0.73-1.27,1.09-3.35,1.09-6.25c0-3.66-0.47-5.98-1.4-6.97c-0.94-0.99-2.52-1.49-4.76-1.49h-6.42l-7.51-0.38
		c-2.63,0-4.66-0.91-6.08-2.72s-2.14-4.89-2.14-9.22c0-3.43,0.31-6.29,0.92-8.58c0.61-2.29,1.66-3.93,3.12-4.91
		c1.47-0.98,3.19-1.61,5.18-1.89c1.99-0.28,4.21-0.42,6.67-0.42c2.04,0,3.52,0.04,4.43,0.12c0.91,0.08,2.39,0.32,4.45,0.71
		c2.06,0.39,3.63,1.72,4.72,3.98c1.09,2.26,1.64,5.7,1.64,10.32h-3.4c0-2.44-0.15-4.25-0.44-5.44
		C927.04,468.79,926.61,467.95,926.05,467.46z"/>
	<path class="st0" d="M968.26,467.46c-0.59-0.54-1.65-0.99-3.19-1.34c-1.54-0.35-3.53-0.53-5.96-0.53h-1.18
		c-1.85,0-3.76,0.15-5.73,0.46c-1.97,0.31-3.41,0.82-4.31,1.53c-0.9,0.72-1.47,1.69-1.72,2.91s-0.38,2.71-0.38,4.44
		c0,3.12,0.47,5.24,1.41,6.36c0.94,1.12,2.3,1.68,4.1,1.68h3.07h6.59c1.15,0,2.17,0.03,3.07,0.08c0.9,0.05,2.25,0.25,4.05,0.6
		c1.81,0.35,3.26,1.5,4.37,3.43c1.11,1.94,1.66,5.24,1.66,9.92c0,3.07-0.27,5.62-0.8,7.65c-0.53,2.04-1.44,3.57-2.71,4.6
		c-1.27,1.03-2.81,1.7-4.62,2c-1.81,0.3-3.77,0.45-5.9,0.45h-2.23c-2.1,0-3.67-0.04-4.73-0.12c-1.05-0.08-2.66-0.38-4.83-0.9
		c-2.17-0.52-3.72-1.9-4.64-4.12c-0.92-2.22-1.39-6.1-1.39-11.65h3.4v1.12c0,2.71,0.13,4.72,0.4,6.02c0.27,1.3,0.95,2.26,2.06,2.87
		c1.11,0.61,2.58,1.01,4.43,1.2c1.85,0.19,3.67,0.28,5.46,0.28c2.91,0,5.37-0.23,7.37-0.69c2-0.46,3.37-1.32,4.1-2.59
		c0.73-1.27,1.09-3.35,1.09-6.25c0-3.66-0.47-5.98-1.4-6.97c-0.94-0.99-2.52-1.49-4.76-1.49h-6.42l-7.51-0.38
		c-2.63,0-4.66-0.91-6.08-2.72s-2.14-4.89-2.14-9.22c0-3.43,0.31-6.29,0.92-8.58c0.61-2.29,1.66-3.93,3.12-4.91
		c1.47-0.98,3.19-1.61,5.18-1.89c1.99-0.28,4.21-0.42,6.67-0.42c2.04,0,3.52,0.04,4.43,0.12c0.91,0.08,2.39,0.32,4.45,0.71
		c2.06,0.39,3.63,1.72,4.72,3.98c1.09,2.26,1.64,5.7,1.64,10.32h-3.4c0-2.44-0.15-4.25-0.44-5.44
		C969.25,468.79,968.82,467.95,968.26,467.46z"/>
	<path class="st0" d="M1003.08,511.26h-3.4v-50.42h3.4V511.26z"/>
	<path class="st0" d="M1015.09,511.26v-50.42h5.65l25.85,45.59v-45.59h3.4v50.42h-5.58l-25.92-45.81v45.81H1015.09z"/>
	<path class="st0" d="M1071.92,511.26v-45.28h-14.11v-5.14h31.71v5.14h-14.2v45.28H1071.92z"/>
	<path class="st0" d="M1124.25,482.68v5.07h-23.48v18.45h24.65v5.07h-28.06v-50.42h27.76v5.14h-24.36v16.71H1124.25z"/>
	<path class="st0" d="M1161.88,511.26h-25.54v-50.42h3.4v45.36h22.13V511.26z"/>
	<path class="st0" d="M1196.36,511.26h-25.54v-50.42h3.4v45.36h22.13V511.26z"/>
	<path class="st0" d="M1208.71,511.26h-3.4v-50.42h3.4V511.26z"/>
	<path class="st0" d="M1237.02,486.39h18.23l0.04,4.49c0,7.81-0.64,13.26-1.91,16.35c-1.27,3.09-4.1,4.64-8.46,4.64h-6.89h-4.87
		c-5.32,0-8.83-1.42-10.54-4.27c-1.71-2.85-2.56-9.01-2.56-18.48v-2.8c0-9.83,0.64-16.58,1.93-20.26c1.29-3.68,4.41-5.52,9.37-5.52
		l7.06-0.15l3.4-0.08l5.59,0.38c2.69,0,4.6,1.21,5.73,3.63c1.13,2.42,1.7,6.17,1.7,11.26h-3.36c0-4.43-0.52-7.17-1.55-8.2
		c-1.04-1.03-2.97-1.55-5.8-1.55l-5.71-0.08l-3.32-0.08l-5.5,0.38c-2.13,0.35-3.63,1.08-4.52,2.19c-0.88,1.11-1.32,3.88-1.32,8.32
		l-0.17,13c0,5.44,0.22,9.59,0.65,12.44c0.43,2.85,2.69,4.27,6.78,4.27l7.14,0.15l3.02,0.08h0.63c1.29,0,2.98-0.18,5.08-0.53
		c2.1-0.35,3.43-1.56,3.99-3.63c0.56-2.07,0.84-5.69,0.84-10.89h-14.7V486.39z"/>
	<path class="st0" d="M1293,482.68v5.07h-23.48v18.45h24.65v5.07h-28.06v-50.42h27.76v5.14h-24.36v16.71H1293z"/>
	<path class="st0" d="M1305.1,511.26v-50.42h5.65l25.85,45.59v-45.59h3.4v50.42h-5.58l-25.92-45.81v45.81H1305.1z"/>
	<path class="st0" d="M1375.36,511.41l-7.22,0.45h-3.11l-6.21-0.45c-4.98-0.91-7.48-5.73-7.48-14.46l-0.17-9.62
		c0-3.84,0.02-6.69,0.06-8.56c0.04-1.87,0.25-4.47,0.61-7.8s1.25-5.85,2.65-7.57c1.4-1.72,3.35-2.58,5.84-2.58
		c1.12-0.24,2.18-0.38,3.17-0.44c0.99-0.06,2.16-0.09,3.51-0.09h1.01h4.03c1.62,0,2.94,0.06,3.95,0.19c1.01,0.13,2.33,0.5,3.97,1.11
		s2.78,2.25,3.42,4.9c0.64,2.66,0.96,6.21,0.96,10.65h-3.36v-0.46c0-2.33-0.08-4.25-0.23-5.75c-0.15-1.5-0.52-2.59-1.09-3.26
		c-0.57-0.67-1.63-1.19-3.17-1.55c-1.54-0.36-3.67-0.54-6.38-0.54c-1.01,0-2.53,0.09-4.58,0.26c-2.04,0.18-3.58,0.26-4.62,0.26
		c-2.41,0.36-3.95,1.13-4.62,2.32c-0.67,1.19-1.09,3.26-1.26,6.2c-0.17,2.94-0.27,5.61-0.29,8.02c-0.03,2.41-0.04,4.7-0.04,6.88
		c0,6.44,0.36,10.87,1.07,13.3c0.71,2.43,2.61,3.65,5.69,3.65h6.55h6.26c2.58,0,4.37-0.55,5.38-1.64s1.51-3.73,1.51-7.91v-2.02h3.53
		c0,6.4-0.56,10.74-1.68,13.04S1379.34,511.41,1375.36,511.41z"/>
	<path class="st0" d="M1422.49,482.68v5.07h-23.48v18.45h24.65v5.07h-28.06v-50.42h27.76v5.14h-24.36v16.71H1422.49z"/>
	<path class="st0" d="M1461.84,489.67c0,2.03-0.39,3.75-1.18,5.17c-0.78,1.42-1.76,2.13-2.94,2.13c-1.12,0-2.07-0.71-2.86-2.13
		c-0.78-1.42-1.18-3.14-1.18-5.17c0-2.03,0.39-3.75,1.18-5.17c0.78-1.42,1.74-2.13,2.86-2.13s2.09,0.71,2.9,2.13
		C1461.43,485.93,1461.84,487.65,1461.84,489.67z"/>
	<path class="st0" d="M1516.73,511.41l-7.22,0.45h-3.11l-6.22-0.45c-4.98-0.91-7.48-5.73-7.48-14.46l-0.17-9.62
		c0-3.84,0.02-6.69,0.06-8.56c0.04-1.87,0.25-4.47,0.61-7.8c0.36-3.33,1.25-5.85,2.65-7.57c1.4-1.72,3.35-2.58,5.84-2.58
		c1.12-0.24,2.18-0.38,3.17-0.44c0.99-0.06,2.16-0.09,3.51-0.09h1.01h4.03c1.62,0,2.94,0.06,3.95,0.19c1.01,0.13,2.33,0.5,3.97,1.11
		c1.64,0.61,2.78,2.25,3.42,4.9c0.64,2.66,0.97,6.21,0.97,10.65h-3.36v-0.46c0-2.33-0.08-4.25-0.23-5.75
		c-0.15-1.5-0.52-2.59-1.09-3.26c-0.57-0.67-1.63-1.19-3.17-1.55c-1.54-0.36-3.67-0.54-6.38-0.54c-1.01,0-2.53,0.09-4.58,0.26
		s-3.58,0.26-4.62,0.26c-2.41,0.36-3.95,1.13-4.62,2.32c-0.67,1.19-1.09,3.26-1.26,6.2c-0.17,2.94-0.27,5.61-0.29,8.02
		c-0.03,2.41-0.04,4.7-0.04,6.88c0,6.44,0.36,10.87,1.07,13.3c0.71,2.43,2.61,3.65,5.69,3.65h6.55h6.26c2.58,0,4.37-0.55,5.38-1.64
		s1.51-3.73,1.51-7.91v-2.02h3.53c0,6.4-0.56,10.74-1.68,13.04C1523.26,510.26,1520.71,511.41,1516.73,511.41z"/>
	<path class="st0" d="M1562.51,511.26h-25.54v-50.42h3.4v45.36h22.13V511.26z"/>
	<path class="st0" d="M1598.34,482.68v5.07h-23.48v18.45h24.65v5.07h-28.06v-50.42h27.76v5.14h-24.36v16.71H1598.34z"/>
	<path class="st0" d="M1609.68,511.26h-3.98l16.56-50.42h4.5l16.69,50.42h-3.9l-3.71-11.34h-22.5L1609.68,511.26z M1614.97,494.85
		h19.21l-9.67-29.56L1614.97,494.85z"/>
	<path class="st0" d="M1683.01,475.8c0,4.54-0.37,7.65-1.11,9.34c-0.74,1.69-2.36,2.86-4.85,3.52c1.88,0.45,3.25,1.27,4.14,2.46
		c0.88,1.18,1.32,3.34,1.32,6.46v13.68h-3.36v-11.19c0-3.73-0.44-6.2-1.32-7.41c-0.88-1.21-2.42-1.81-4.6-1.81h-19.11v20.41h-3.4
		v-50.42h22.81c3.39,0,5.82,1.02,7.29,3.06S1683.01,469.91,1683.01,475.8z M1679.48,475.42c0-3.93-0.52-6.49-1.55-7.67
		c-1.04-1.18-2.74-1.78-5.12-1.78h-18.69v19.81h18.77c2.46,0,4.18-0.69,5.14-2.08C1679,482.32,1679.48,479.56,1679.48,475.42z"/>
	<path class="st0" d="M1712.03,511.26h-3.4v-50.42h3.4V511.26z"/>
	<path class="st0" d="M1724.04,511.26v-50.42h5.65l25.85,45.59v-45.59h3.4v50.42h-5.58l-25.92-45.81v45.81H1724.04z"/>
	<path class="st0" d="M1796.45,467.46c-0.59-0.54-1.65-0.99-3.19-1.34c-1.54-0.35-3.53-0.53-5.96-0.53h-1.18
		c-1.85,0-3.76,0.15-5.73,0.46c-1.97,0.31-3.41,0.82-4.3,1.53c-0.9,0.72-1.47,1.69-1.72,2.91s-0.38,2.71-0.38,4.44
		c0,3.12,0.47,5.24,1.41,6.36c0.94,1.12,2.3,1.68,4.09,1.68h3.07h6.59c1.15,0,2.17,0.03,3.07,0.08c0.9,0.05,2.25,0.25,4.05,0.6
		c1.81,0.35,3.26,1.5,4.37,3.43c1.11,1.94,1.66,5.24,1.66,9.92c0,3.07-0.27,5.62-0.8,7.65c-0.53,2.04-1.44,3.57-2.71,4.6
		c-1.27,1.03-2.81,1.7-4.62,2c-1.81,0.3-3.77,0.45-5.9,0.45h-2.23c-2.1,0-3.68-0.04-4.73-0.12c-1.05-0.08-2.66-0.38-4.83-0.9
		s-3.72-1.9-4.64-4.12s-1.39-6.1-1.39-11.65h3.4v1.12c0,2.71,0.13,4.72,0.4,6.02c0.27,1.3,0.95,2.26,2.06,2.87
		c1.11,0.61,2.58,1.01,4.43,1.2c1.85,0.19,3.67,0.28,5.46,0.28c2.91,0,5.37-0.23,7.37-0.69c2-0.46,3.37-1.32,4.09-2.59
		c0.73-1.27,1.09-3.35,1.09-6.25c0-3.66-0.47-5.98-1.41-6.97s-2.52-1.49-4.76-1.49h-6.42l-7.51-0.38c-2.63,0-4.66-0.91-6.08-2.72
		c-1.43-1.81-2.14-4.89-2.14-9.22c0-3.43,0.31-6.29,0.92-8.58c0.62-2.29,1.66-3.93,3.13-4.91c1.47-0.98,3.19-1.61,5.18-1.89
		c1.98-0.28,4.21-0.42,6.67-0.42c2.04,0,3.52,0.04,4.42,0.12c0.91,0.08,2.39,0.32,4.45,0.71c2.05,0.39,3.63,1.72,4.72,3.98
		c1.09,2.26,1.64,5.7,1.64,10.32h-3.4c0-2.44-0.15-4.25-0.44-5.44C1797.44,468.79,1797.01,467.95,1796.45,467.46z"/>
	<path class="st0" d="M1816.57,511.26h-3.4v-50.42h3.4V511.26z"/>
	<path class="st0" d="M1844.88,486.39h18.23l0.04,4.49c0,7.81-0.64,13.26-1.91,16.35s-4.09,4.64-8.46,4.64h-6.89h-4.87
		c-5.32,0-8.83-1.42-10.54-4.27c-1.71-2.85-2.56-9.01-2.56-18.48v-2.8c0-9.83,0.64-16.58,1.93-20.26c1.29-3.68,4.41-5.52,9.37-5.52
		l7.06-0.15l3.4-0.08l5.59,0.38c2.69,0,4.6,1.21,5.73,3.63c1.13,2.42,1.7,6.17,1.7,11.26h-3.36c0-4.43-0.52-7.17-1.55-8.2
		c-1.04-1.03-2.97-1.55-5.8-1.55l-5.71-0.08l-3.32-0.08l-5.5,0.38c-2.13,0.35-3.63,1.08-4.51,2.19c-0.88,1.11-1.32,3.88-1.32,8.32
		l-0.17,13c0,5.44,0.22,9.59,0.65,12.44c0.43,2.85,2.69,4.27,6.78,4.27l7.14,0.15l3.02,0.08h0.63c1.29,0,2.98-0.18,5.08-0.53
		c2.1-0.35,3.43-1.56,3.99-3.63c0.56-2.07,0.84-5.69,0.84-10.89h-14.7V486.39z"/>
	<path class="st0" d="M1877.38,511.26h-3.4v-50.42h3.4v21.85h26.12v-21.85h3.36v50.42h-3.36v-23.51h-26.12V511.26z"/>
	<path class="st0" d="M1928.83,511.26v-45.28h-14.11v-5.14h31.71v5.14h-14.2v45.28H1928.83z"/>
	<path class="st0" d="M1979.78,467.46c-0.59-0.54-1.65-0.99-3.19-1.34c-1.54-0.35-3.53-0.53-5.96-0.53h-1.18
		c-1.85,0-3.76,0.15-5.73,0.46c-1.97,0.31-3.41,0.82-4.3,1.53c-0.9,0.72-1.47,1.69-1.72,2.91s-0.38,2.71-0.38,4.44
		c0,3.12,0.47,5.24,1.41,6.36c0.94,1.12,2.3,1.68,4.09,1.68h3.07h6.59c1.15,0,2.17,0.03,3.07,0.08c0.9,0.05,2.25,0.25,4.05,0.6
		c1.81,0.35,3.26,1.5,4.37,3.43c1.11,1.94,1.66,5.24,1.66,9.92c0,3.07-0.27,5.62-0.8,7.65c-0.53,2.04-1.44,3.57-2.71,4.6
		c-1.27,1.03-2.81,1.7-4.62,2c-1.81,0.3-3.77,0.45-5.9,0.45h-2.23c-2.1,0-3.68-0.04-4.73-0.12c-1.05-0.08-2.66-0.38-4.83-0.9
		s-3.72-1.9-4.64-4.12s-1.39-6.1-1.39-11.65h3.4v1.12c0,2.71,0.13,4.72,0.4,6.02c0.27,1.3,0.95,2.26,2.06,2.87
		c1.11,0.61,2.58,1.01,4.43,1.2c1.85,0.19,3.67,0.28,5.46,0.28c2.91,0,5.37-0.23,7.37-0.69c2-0.46,3.37-1.32,4.09-2.59
		c0.73-1.27,1.09-3.35,1.09-6.25c0-3.66-0.47-5.98-1.41-6.97s-2.52-1.49-4.76-1.49h-6.42l-7.51-0.38c-2.63,0-4.66-0.91-6.08-2.72
		c-1.43-1.81-2.14-4.89-2.14-9.22c0-3.43,0.31-6.29,0.92-8.58c0.62-2.29,1.66-3.93,3.13-4.91c1.47-0.98,3.19-1.61,5.18-1.89
		c1.98-0.28,4.21-0.42,6.67-0.42c2.04,0,3.52,0.04,4.42,0.12c0.91,0.08,2.39,0.32,4.45,0.71c2.05,0.39,3.63,1.72,4.72,3.98
		c1.09,2.26,1.64,5.7,1.64,10.32h-3.4c0-2.44-0.15-4.25-0.44-5.44C1980.77,468.79,1980.34,467.95,1979.78,467.46z"/>
	<path class="st0" d="M2023.75,489.67c0,2.03-0.39,3.75-1.18,5.17c-0.78,1.42-1.76,2.13-2.94,2.13c-1.12,0-2.07-0.71-2.86-2.13
		c-0.78-1.42-1.18-3.14-1.18-5.17c0-2.03,0.39-3.75,1.18-5.17c0.78-1.42,1.74-2.13,2.86-2.13s2.09,0.71,2.9,2.13
		C2023.35,485.93,2023.75,487.65,2023.75,489.67z"/>
	<path class="st0" d="M2086.79,473.46c0,3.93-0.34,6.6-1.01,8.01c-0.67,1.41-2.09,2.45-4.24,3.1c2.38,0,4.01,0.9,4.89,2.68
		c0.88,1.79,1.32,4.9,1.32,9.34c0,5.49-0.71,9.31-2.14,11.45c-1.43,2.14-3.77,3.21-7.01,3.21h-23.31v-50.42h23.69
		c2.55,0,4.49,0.98,5.82,2.95C2086.13,465.75,2086.79,468.97,2086.79,473.46z M2083.27,473.99c0-3.18-0.39-5.3-1.18-6.39
		c-0.78-1.08-2.1-1.63-3.95-1.63h-19.45v16.48h18.94c1.99,0,3.42-0.58,4.3-1.74S2083.27,477.31,2083.27,473.99z M2084.23,497.5
		c0-2.22-0.1-4.02-0.29-5.41c-0.2-1.38-0.62-2.41-1.26-3.06c-0.64-0.65-1.32-1.07-2.04-1.25c-0.71-0.18-1.49-0.26-2.33-0.26h-0.46
		h-19.15v18.67h19.24c2.16,0,3.74-0.59,4.77-1.78C2083.72,503.23,2084.23,500.93,2084.23,497.5z"/>
	<path class="st0" d="M2125.39,482.68v5.07h-23.48v18.45h24.65v5.07h-28.06v-50.42h27.76v5.14h-24.36v16.71H2125.39z"/>
	<path class="st0" d="M2147.4,511.26v-45.28h-14.11v-5.14H2165v5.14h-14.2v45.28H2147.4z"/>
	<path class="st0" d="M2182.76,511.26v-45.28h-14.11v-5.14h31.71v5.14h-14.2v45.28H2182.76z"/>
	<path class="st0" d="M2235.09,482.68v5.07h-23.48v18.45h24.65v5.07h-28.06v-50.42h27.76v5.14h-24.36v16.71H2235.09z"/>
	<path class="st0" d="M2279.49,475.8c0,4.54-0.37,7.65-1.11,9.34c-0.74,1.69-2.36,2.86-4.85,3.52c1.88,0.45,3.25,1.27,4.14,2.46
		c0.88,1.18,1.32,3.34,1.32,6.46v13.68h-3.36v-11.19c0-3.73-0.44-6.2-1.32-7.41c-0.88-1.21-2.42-1.81-4.6-1.81h-19.11v20.41h-3.4
		v-50.42h22.81c3.39,0,5.82,1.02,7.29,3.06S2279.49,469.91,2279.49,475.8z M2275.96,475.42c0-3.93-0.52-6.49-1.55-7.67
		c-1.04-1.18-2.74-1.78-5.12-1.78h-18.69v19.81h18.77c2.46,0,4.18-0.69,5.14-2.08C2275.48,482.32,2275.96,479.56,2275.96,475.42z"/>
	<path class="st0" d="M2339.67,485.33c0,4.49-0.2,8.66-0.59,12.51c-0.39,3.86-1.13,6.79-2.23,8.81c-1.09,2.02-2.41,3.29-3.95,3.82
		s-3.37,0.79-5.5,0.79h-0.34h-21.92v-50.35h23.39c4.54,0,7.52,1.89,8.97,5.67S2339.67,476.61,2339.67,485.33z M2336.14,485.4
		c0-7.06-0.48-12.06-1.45-15.01c-0.97-2.95-3.27-4.42-6.91-4.42h-19.24v40.22h18.9c3.92,0,6.35-1.54,7.29-4.61
		C2335.67,498.51,2336.14,493.12,2336.14,485.4z"/>
	<path class="st0" d="M2377.72,482.68v5.07h-23.48v18.45h24.65v5.07h-28.06v-50.42h27.76v5.14h-24.36v16.71H2377.72z"/>
	<path class="st0" d="M2413.17,511.41l-7.22,0.45h-3.11l-6.22-0.45c-4.98-0.91-7.48-5.73-7.48-14.46l-0.17-9.62
		c0-3.84,0.02-6.69,0.06-8.56c0.04-1.87,0.25-4.47,0.61-7.8c0.36-3.33,1.25-5.85,2.65-7.57c1.4-1.72,3.35-2.58,5.84-2.58
		c1.12-0.24,2.18-0.38,3.17-0.44c0.99-0.06,2.16-0.09,3.51-0.09h1.01h4.03c1.62,0,2.94,0.06,3.95,0.19c1.01,0.13,2.33,0.5,3.97,1.11
		c1.64,0.61,2.78,2.25,3.42,4.9c0.64,2.66,0.97,6.21,0.97,10.65h-3.36v-0.46c0-2.33-0.08-4.25-0.23-5.75
		c-0.15-1.5-0.52-2.59-1.09-3.26c-0.57-0.67-1.63-1.19-3.17-1.55c-1.54-0.36-3.67-0.54-6.38-0.54c-1.01,0-2.53,0.09-4.58,0.26
		s-3.58,0.26-4.62,0.26c-2.41,0.36-3.95,1.13-4.62,2.32c-0.67,1.19-1.09,3.26-1.26,6.2c-0.17,2.94-0.27,5.61-0.29,8.02
		c-0.03,2.41-0.04,4.7-0.04,6.88c0,6.44,0.36,10.87,1.07,13.3c0.71,2.43,2.61,3.65,5.69,3.65h6.55h6.26c2.58,0,4.37-0.55,5.38-1.64
		s1.51-3.73,1.51-7.91v-2.02h3.53c0,6.4-0.56,10.74-1.68,13.04C2419.7,510.26,2417.15,511.41,2413.17,511.41z"/>
	<path class="st0" d="M2436.82,511.26h-3.4v-50.42h3.4V511.26z"/>
	<path class="st0" d="M2474.32,467.46c-0.59-0.54-1.65-0.99-3.19-1.34c-1.54-0.35-3.53-0.53-5.96-0.53h-1.18
		c-1.85,0-3.76,0.15-5.73,0.46c-1.97,0.31-3.41,0.82-4.3,1.53c-0.9,0.72-1.47,1.69-1.72,2.91s-0.38,2.71-0.38,4.44
		c0,3.12,0.47,5.24,1.41,6.36c0.94,1.12,2.3,1.68,4.09,1.68h3.07h6.59c1.15,0,2.17,0.03,3.07,0.08c0.9,0.05,2.25,0.25,4.05,0.6
		c1.81,0.35,3.26,1.5,4.37,3.43c1.11,1.94,1.66,5.24,1.66,9.92c0,3.07-0.27,5.62-0.8,7.65c-0.53,2.04-1.44,3.57-2.71,4.6
		c-1.27,1.03-2.81,1.7-4.62,2c-1.81,0.3-3.77,0.45-5.9,0.45h-2.23c-2.1,0-3.68-0.04-4.73-0.12c-1.05-0.08-2.66-0.38-4.83-0.9
		s-3.72-1.9-4.64-4.12s-1.39-6.1-1.39-11.65h3.4v1.12c0,2.71,0.13,4.72,0.4,6.02c0.27,1.3,0.95,2.26,2.06,2.87
		c1.11,0.61,2.58,1.01,4.43,1.2c1.85,0.19,3.67,0.28,5.46,0.28c2.91,0,5.37-0.23,7.37-0.69c2-0.46,3.37-1.32,4.09-2.59
		c0.73-1.27,1.09-3.35,1.09-6.25c0-3.66-0.47-5.98-1.41-6.97s-2.52-1.49-4.76-1.49h-6.42l-7.51-0.38c-2.63,0-4.66-0.91-6.08-2.72
		c-1.43-1.81-2.14-4.89-2.14-9.22c0-3.43,0.31-6.29,0.92-8.58c0.62-2.29,1.66-3.93,3.13-4.91c1.47-0.98,3.19-1.61,5.18-1.89
		c1.98-0.28,4.21-0.42,6.67-0.42c2.04,0,3.52,0.04,4.42,0.12c0.91,0.08,2.39,0.32,4.45,0.71c2.05,0.39,3.63,1.72,4.72,3.98
		c1.09,2.26,1.64,5.7,1.64,10.32h-3.4c0-2.44-0.15-4.25-0.44-5.44C2475.31,468.79,2474.88,467.95,2474.32,467.46z"/>
	<path class="st0" d="M2494.44,511.26h-3.4v-50.42h3.4V511.26z"/>
	<path class="st0" d="M2515.57,460.3h12.39c5.82,0,9.55,1.4,11.19,4.2c1.64,2.8,2.46,9.31,2.46,19.54v1.81v1.59
		c0,3.63-0.12,7.45-0.36,11.45c-0.24,4.01-1.04,7.09-2.39,9.26c-1.36,2.17-3.4,3.25-6.11,3.25c-0.84,0.15-1.91,0.25-3.21,0.3
		c-1.3,0.05-2.54,0.08-3.72,0.08h-6.26h-0.76c-1.71,0-3.35-0.15-4.93-0.46c-1.58-0.3-2.91-0.86-3.99-1.67
		c-1.08-0.81-1.96-2.21-2.65-4.21c-0.69-2-1.13-4.59-1.32-7.77c-0.2-3.18-0.29-6.95-0.29-11.3c0-4.09,0.03-7.04,0.08-8.83
		c0.06-1.79,0.29-4.36,0.69-7.7s1.39-5.76,2.96-7.28C2510.92,461.06,2512.99,460.3,2515.57,460.3z M2516.3,506.19l7.25,0.3h2.61
		h0.88c1.99,0,4-0.18,6.02-0.53c2.02-0.35,3.36-1.55,4.02-3.6c0.66-2.04,0.99-5.11,0.99-9.2v-10.38c0-3.18-0.07-5.94-0.21-8.29
		c-0.14-2.35-0.45-4.14-0.92-5.38c-0.48-1.24-1.1-2.04-1.87-2.42c-0.77-0.38-1.55-0.63-2.35-0.76c-0.8-0.13-1.64-0.19-2.54-0.19
		l-6.59-0.15l-6.51,0.15c-3.19,0-5.29,0.75-6.3,2.24c-1.01,1.49-1.51,5.02-1.51,10.59l-0.13,7.59v3.72c0,6.38,0.38,10.69,1.14,12.94
		C2511.04,505.07,2513.04,506.19,2516.3,506.19z"/>
	<path class="st0" d="M2552.78,511.26v-50.42h5.65l25.85,45.59v-45.59h3.4v50.42h-5.58l-25.92-45.81v45.81H2552.78z"/>
	<path class="st0" d="M2625.19,467.46c-0.59-0.54-1.65-0.99-3.19-1.34c-1.54-0.35-3.53-0.53-5.96-0.53h-1.18
		c-1.85,0-3.76,0.15-5.73,0.46c-1.97,0.31-3.41,0.82-4.3,1.53c-0.9,0.72-1.47,1.69-1.72,2.91s-0.38,2.71-0.38,4.44
		c0,3.12,0.47,5.24,1.41,6.36c0.94,1.12,2.3,1.68,4.09,1.68h3.07h6.59c1.15,0,2.17,0.03,3.07,0.08c0.9,0.05,2.25,0.25,4.05,0.6
		c1.81,0.35,3.26,1.5,4.37,3.43c1.11,1.94,1.66,5.24,1.66,9.92c0,3.07-0.27,5.62-0.8,7.65c-0.53,2.04-1.44,3.57-2.71,4.6
		c-1.27,1.03-2.81,1.7-4.62,2c-1.81,0.3-3.77,0.45-5.9,0.45h-2.23c-2.1,0-3.68-0.04-4.73-0.12c-1.05-0.08-2.66-0.38-4.83-0.9
		s-3.72-1.9-4.64-4.12s-1.39-6.1-1.39-11.65h3.4v1.12c0,2.71,0.13,4.72,0.4,6.02c0.27,1.3,0.95,2.26,2.06,2.87
		c1.11,0.61,2.58,1.01,4.43,1.2c1.85,0.19,3.67,0.28,5.46,0.28c2.91,0,5.37-0.23,7.37-0.69c2-0.46,3.37-1.32,4.09-2.59
		c0.73-1.27,1.09-3.35,1.09-6.25c0-3.66-0.47-5.98-1.41-6.97s-2.52-1.49-4.76-1.49h-6.42l-7.51-0.38c-2.63,0-4.66-0.91-6.08-2.72
		c-1.43-1.81-2.14-4.89-2.14-9.22c0-3.43,0.31-6.29,0.92-8.58c0.62-2.29,1.66-3.93,3.13-4.91c1.47-0.98,3.19-1.61,5.18-1.89
		c1.98-0.28,4.21-0.42,6.67-0.42c2.04,0,3.52,0.04,4.42,0.12c0.91,0.08,2.39,0.32,4.45,0.71c2.05,0.39,3.63,1.72,4.72,3.98
		c1.09,2.26,1.64,5.7,1.64,10.32h-3.4c0-2.44-0.15-4.25-0.44-5.44C2626.17,468.79,2625.75,467.95,2625.19,467.46z"/>
</g>
</svg>
